<?xml version="1.0" encoding="utf-8"?>
<!-- Generator: Adobe Illustrator 25.0.1, SVG Export Plug-In . SVG Version: 6.00 Build 0)  -->
<svg version="1.1" id="Layer_1" xmlns="http://www.w3.org/2000/svg" xmlns:xlink="http://www.w3.org/1999/xlink" x="0px" y="0px"
	 viewBox="0 0 890.68 667.08" style="enable-background:new 0 0 890.68 667.08;" xml:space="preserve">
<style type="text/css">
	.st0{fill:none;stroke:#035DA8;stroke-width:16;stroke-miterlimit:10;}
	.st1{fill:#FFFFFF;stroke:#035DA8;stroke-width:16;stroke-miterlimit:10;}
	.st2{fill:#00539E;stroke:#000000;stroke-miterlimit:10;}
	.st3{fill:#004994;stroke:#000000;stroke-miterlimit:10;}
	.st4{fill:#035DA8;stroke:#000000;stroke-miterlimit:10;}
	.st5{fill:#FFFFFF;}
	.st6{fill:#FFFFFF;stroke:#000000;stroke-miterlimit:10;}
	.st7{fill:none;stroke:#727372;stroke-width:4;stroke-miterlimit:10;}
	.st8{fill:#231F20;stroke:#000000;stroke-width:5;stroke-miterlimit:10;}
	.st9{fill:none;stroke:#000000;stroke-width:5;stroke-miterlimit:10;}
	.st10{fill:#E9DBD2;}
	.st11{fill:#C2BCB7;}
	.st12{opacity:0.11;fill:#035DA8;enable-background:new    ;}
	.st13{fill:#044F90;}
	.st14{fill:#035DA8;}
	.st15{fill:#231F20;}
	.st16{fill:#EBDCD3;}
	.st17{fill:none;stroke:#EEDAD3;stroke-width:7;stroke-miterlimit:10;}
	.st18{fill:none;stroke:#EEDAD3;stroke-width:3;stroke-miterlimit:10;}
	.st19{fill:none;stroke:#EEDAD3;stroke-width:5;stroke-miterlimit:10;}
	.st20{fill:none;stroke:#FFFFFF;stroke-miterlimit:10;}
</style>
<path class="st0" d="M168.68,380.49c-4.38-1-13.98-3.74-21.87-10.99c-2.94-2.71-9.15-8.57-10.04-17.48
	c-0.83-8.26,3.39-14.39,5.38-17.2c2.69-3.79,7.45-10.49,16.49-12.97c4.72-1.29,8.98-0.99,10.4-3.38c1.03-1.74-0.54-3.05-1.08-6.48
	c-0.46-2.97,0.29-5.18,1.79-9.58c1.48-4.33,2.83-8.31,6.1-12.4c4.92-6.17,11.48-9.22,16.49-11.56c5.4-2.51,14.86-6.92,27.97-6.77
	c10.59,0.12,18.2,3.17,24.38,5.64c8.25,3.3,13.49,5.4,16.85,10.15c2.45,3.47,2.67,6.61,5.38,7.05c2.58,0.42,4.14-2.15,10.04-4.51
	c0.27-0.11,4.19-1.65,8.6-2.26c9.23-1.26,17.04,2.1,20.08,3.38c2.4,1.01,8.1,3.48,12.55,8.74c2.27,2.68,6.54,7.72,5.38,13.53
	c-0.72,3.6-3.05,5.17-1.79,7.33c1.22,2.09,4.35,2.26,8.6,3.66c6.74,2.23,10.83,5.78,13.27,7.89c7.42,6.44,8.75,14.16,8.96,15.5
	c1.62,10.37-4.72,18-6.45,20.01c-1.36,1.58-6.21,6.9-15.42,10.43c-5.92,2.27-11.33,2.91-14.7,3.1L168.68,380.49z"/>
<g>
	<path class="st0" d="M283.15,166.56c5.98-1.13,19.09-4.21,29.86-12.37c4.02-3.04,12.49-9.64,13.71-19.66
		c1.13-9.29-4.63-16.19-7.34-19.34c-3.67-4.26-10.17-11.8-22.52-14.58c-6.44-1.45-12.26-1.11-14.2-3.8
		c-1.4-1.96,0.74-3.44,1.47-7.29c0.63-3.34-0.4-5.82-2.45-10.78c-2.02-4.87-3.87-9.35-8.32-13.95c-6.71-6.94-15.67-10.37-22.52-13
		c-7.37-2.83-20.29-7.78-38.18-7.61c-14.46,0.14-24.84,3.56-33.29,6.34c-11.27,3.71-18.42,6.07-23.01,11.41
		c-3.35,3.9-3.65,7.43-7.34,7.93c-3.52,0.47-5.65-2.42-13.71-5.07c-0.37-0.12-5.72-1.86-11.75-2.54c-12.6-1.42-23.26,2.36-27.41,3.8
		c-3.28,1.14-11.06,3.92-17.13,9.83c-3.1,3.02-8.92,8.69-7.34,15.22c0.98,4.05,4.17,5.81,2.45,8.24c-1.66,2.35-5.94,2.54-11.75,4.12
		c-9.21,2.51-14.79,6.5-18.11,8.88c-10.13,7.24-11.95,15.92-12.24,17.44c-2.21,11.66,6.45,20.25,8.81,22.51
		c1.86,1.78,8.48,7.76,21.05,11.73c8.09,2.55,15.47,3.27,20.07,3.49L283.15,166.56z"/>
	<path class="st1" d="M213.56,191.03c-2.81-0.79-8.96-2.93-14.01-8.61c-1.89-2.12-5.86-6.71-6.43-13.68
		c-0.53-6.47,2.17-11.27,3.45-13.46c1.72-2.96,4.77-8.21,10.57-10.15c3.02-1.01,5.75-0.77,6.66-2.65c0.66-1.36-0.35-2.39-0.69-5.08
		c-0.3-2.33,0.19-4.05,1.15-7.5c0.95-3.39,1.82-6.51,3.9-9.71c3.15-4.83,7.35-7.22,10.57-9.05c3.46-1.97,9.52-5.42,17.92-5.3
		c6.79,0.1,11.66,2.48,15.62,4.41c5.29,2.58,8.64,4.22,10.8,7.94c1.57,2.71,1.71,5.17,3.45,5.52c1.65,0.33,2.65-1.68,6.43-3.53
		c0.17-0.08,2.68-1.29,5.51-1.77c5.91-0.99,10.92,1.65,12.86,2.65c1.54,0.79,5.19,2.73,8.04,6.84c1.45,2.1,4.19,6.05,3.45,10.59
		c-0.46,2.82-1.96,4.04-1.15,5.74c0.78,1.64,2.79,1.77,5.51,2.87c4.32,1.75,6.94,4.52,8.5,6.18c4.75,5.04,5.61,11.08,5.74,12.14
		c1.04,8.12-3.03,14.09-4.13,15.67c-0.87,1.24-3.98,5.4-9.88,8.16c-3.8,1.78-7.26,2.28-9.42,2.43L213.56,191.03z"/>
</g>
<g>
	<polygon class="st2" points="25.13,498.58 25.13,521.95 577.97,624.59 578.98,604.27 	"/>
	<polygon class="st3" points="577.97,624.59 578.98,604.27 824.91,530.08 824.91,554.47 	"/>
	<polygon class="st4" points="277.15,425.41 824.91,530.08 578.98,604.27 25.13,498.58 	"/>
	<polygon class="st5" points="246.67,527.03 307.64,508.74 438.68,533.13 378.54,551.42 	"/>
	<polygon class="st5" points="223.3,479.27 598.29,551.42 691.79,526.02 313.74,454.88 	"/>
	<path class="st4" d="M277.15,425.41L311.7,81.92c1.02-11.18,8.13-16.26,16.26-16.26l514.22,71.39c23.37,0,23.37,8.9,23.37,19.06
		L824.9,530.09L277.15,425.41z"/>
	<polygon class="st6" points="302.05,408.13 334.07,93.1 837.11,162.2 806.62,498.58 	"/>
</g>
<g>
	<line class="st7" x1="729.26" y1="341.59" x2="715.95" y2="417.53"/>
	<line class="st7" x1="747.47" y1="237.78" x2="734.15" y2="313.71"/>
	<path class="st8" d="M652.6,353.96c-0.99,6.07-2.71,16.67-3.7,22.75"/>
	<line class="st9" x1="659.17" y1="385.03" x2="692.95" y2="361.62"/>
	<path class="st10" d="M733.79,328.47c0-0.01-0.01-0.02,0-0.02c-0.29-2.1-4.06,0.32-13.46,2.02c-0.05,0.01-0.1,0.02-0.15,0.03
		c-7.96,1.43-14.71,1.63-22.35,1.84c-3.7,0.11-6.78,0.1-8.9,0.07l9.33-53.21c2.25,0.17,5.53,0.62,9.27,1.93
		c6.51,2.27,10.66,5.82,13.74,8.47c2.4,2.06,5.14,4.45,7.68,8.45c0,0,1.8,2.83,3.06,6.15c0.52,1.37,1.07,3.29,1.52,5.59
		C734.51,314.7,735.01,321.43,733.79,328.47z"/>
	<path class="st10" d="M733.79,328.47c-0.8,4.56-2.32,9.26-4.91,13.69c-0.59,1.02-1.24,2.03-1.96,3.02
		c-0.59,0.82-1.23,1.63-1.91,2.43c-0.84,0.97-3.89,4.43-8.98,7.72c-0.3,0.2-0.6,0.39-0.91,0.58c-1.16,0.72-2.16,1.27-2.92,1.66
		c-0.17,0.09-0.35,0.18-0.52,0.26c-0.35,0.17-0.74,0.37-1.15,0.57c-0.21,0.09-0.41,0.2-0.63,0.29c-1.3,0.62-2.85,1.26-4.64,1.82
		c-1.19,0.38-2.5,0.71-3.91,0.95c-0.35,0.06-0.71,0.13-1.08,0.18c-0.48,0.07-0.97,0.13-1.48,0.18c-0.27,0.02-0.54,0.05-0.82,0.07
		c-0.38,0.03-0.76,0.05-1.13,0.06c-0.01,0-0.02,0-0.03,0c-0.65,0.03-1.28,0.03-1.89,0.02c-0.08,0-0.17-0.01-0.25,0
		c-0.32-0.01-0.64-0.03-0.96-0.04c-0.6-0.03-1.18-0.08-1.75-0.15c-0.18-0.02-0.35-0.04-0.52-0.06c-0.01,0-0.02,0-0.02,0
		c-0.24-0.03-0.48-0.06-0.71-0.1c-1.23-0.18-2.35-0.41-3.36-0.67c-1.27-0.33-2.36-0.68-3.24-1l4.83-27.54
		c2.12,0.03,5.2,0.04,8.9-0.07c7.64-0.22,14.39-0.42,22.35-1.84c0.05-0.01,0.1-0.01,0.15-0.03c9.4-1.7,13.17-4.12,13.46-2.02
		C733.78,328.45,733.79,328.46,733.79,328.47z"/>
	<path class="st11" d="M728.88,342.16c-0.66,1.14-1.33,2.17-1.97,3.02c-0.04,0.06-0.09,0.12-0.13,0.17
		c-3.67,4.74-7.66,7.94-10.76,9.98c-0.31,0.2-0.61,0.39-0.91,0.58c-1.16,0.72-2.16,1.27-2.92,1.66c-0.17,0.09-0.35,0.18-0.52,0.26
		c-0.35,0.17-0.74,0.37-1.15,0.57c-0.21,0.09-0.41,0.2-0.63,0.29c-1.31,0.61-2.85,1.26-4.64,1.82c-1.19,0.37-2.49,0.7-3.91,0.95
		c-0.35,0.06-0.71,0.13-1.08,0.18c-0.48,0.07-0.97,0.13-1.48,0.18c-0.27,0.02-0.54,0.05-0.82,0.07c-0.38,0.03-0.76,0.05-1.13,0.06
		c-0.01,0-0.02,0-0.03,0c-0.64,0.02-1.28,0.03-1.89,0.02c-0.08,0-0.17-0.01-0.25,0c-0.32-0.01-0.64-0.03-0.96-0.04
		c-0.6-0.03-1.18-0.08-1.75-0.15c-0.18-0.02-0.35-0.04-0.52-0.06c-0.01,0-0.02,0-0.02,0c-0.24-0.03-0.48-0.06-0.71-0.1
		c-1.23-0.18-2.35-0.41-3.36-0.67c-1.27-0.32-2.36-0.67-3.24-1l4.83-27.54c2.12,0.03,5.2,0.04,8.9-0.07
		c7.64-0.22,14.39-0.42,22.35-1.84c0.05-0.01,0.1-0.01,0.15-0.03c9.4-1.7,13.17-4.12,13.46-2.02c0,0.01,0,0.02,0,0.02
		C734.13,331.13,731.58,337.52,728.88,342.16z"/>
	<path class="st12" d="M542.3,253.28c-0.25-3.26-0.83-7.25-2.12-11.65c-1.14-3.85-2.64-8.92-6.52-14.35
		c-1.66-2.31-4.36-5.56-8.52-8.67l-9.58,49.83L542.3,253.28z"/>
	<path class="st13" d="M356.96,233.93c-1.86-0.23-3.61,1-4,2.81c-0.37,1.73,0.6,3.52,2.3,4.16l30.3,5.31l1.15-6.57L356.96,233.93z"
		/>
	<path class="st14" d="M688.29,344.48c0.57-3.5,1.51-9.18,2.71-16.22c2.99-17.5,2.89-15.61,4.26-24.29
		c0.83-5.33,1.52-10.18,3.07-17.52c1.19-5.64,1.37-5.52,1.34-6.06c-1.06-17.61-175.76-30.47-175.74-30.82l0,0
		c-0.01,0-1.83,7.75-2.31,13.19c-0.04,0.51-0.14,1.75-1.04,2.61c-0.86,0.82-2.05,0.88-2.62,0.9c-28.43,0.73-36.58-6.54-36.58-6.54
		c-3.33-2.97-5.86-6.67-9-11.28c-4.03-5.9-3.66-6.76-5.33-8.74c0,0-32.48-4.76-39.9-7.17c-1.56-0.5,0.68-2.05,1.27-5.64
		c1.38-8.4-4.23-15.79-8.83-21.85c-3.12-4.1-8.35-10.83-17.89-14.97c-4.51-1.95-8.57-2.72-11.4-3.04l-10.67,60.38l113.2,61.58
		L688.29,344.48z"/>
	<path class="st13" d="M379.63,247.41c-0.44,0.83,5.13,5.18,16.24,13.85c7.62,5.95,17.36,13.5,31.12,22.13
		c8.42,5.28,16.86,9.71,33.74,18.58c11.8,6.2,20.26,10.65,30.9,15.75c5.78,2.77,26.4,12.66,45.87,19.71
		c36.58,13.25,68.44,16.24,116.36,20.74c13.08,1.23,24.8,2,31.61,2.41l4.94-28.15c-4.96,0.68-13.9,0.94-16.42,0.99
		c-44.73,0.96-141.26-24.29-171.89-35.86C431.42,270.84,381.38,244.05,379.63,247.41z"/>
	<path class="st14" d="M699.97,355.13c1.12,1.19,2.94,3.46,2.34,5.53c-0.53,1.84-2.73,2.68-3.54,2.99
		c-12.92,4.95-133.99-16.01-146.39-25.07c-1.02-0.75-3.8-2.78-4.09-5.83c-0.17-1.71,0.5-3.16,1.01-4.04L699.97,355.13z"/>
	<path class="st15" d="M750.04,329.11c-1.62,9.23-9.58,15.55-17.79,14.11c-1.19-0.21-2.32-0.57-3.37-1.07
		c2.7-4.63,5.25-11.03,4.91-13.69c1.23-7.04,0.72-13.77-0.25-18.7c1.49-0.24,3.03-0.25,4.57,0.02
		C746.32,311.23,751.66,319.89,750.04,329.11z"/>
	
		<ellipse transform="matrix(0.1727 -0.985 0.985 0.1727 145.6521 962.0274)" class="st15" cx="645.53" cy="394.31" rx="22.15" ry="22.15"/>
	
		<ellipse transform="matrix(0.1727 -0.985 0.985 0.1727 145.8379 962.3481)" class="st16" cx="645.81" cy="394.36" rx="10.71" ry="11.16"/>
	<path class="st14" d="M703.73,258.8c1.83-0.89,4.43-2.28,7.33-4.3c1.61-1.12,3.46-2.53,12.53-11.86c4.43-4.55,6.48-6.78,7.31-10.34
		c0.8-3.44-0.28-4.92-0.52-5.23c-1.19-1.49-3.29-1.62-3.85-1.66c-7.67-0.68-145.6-24.37-154.61-27.29c-0.58-0.19-3.14-1.1-5.32,0.05
		c-1.61,0.86-2.65,2.65-2.88,4.09c-0.58,3.69,3.88,6.66,10.44,12.37c7.5,6.53,4.36,4.99,16.16,15.72
		c3.29,2.99,7.69,6.89,13.05,11.36L703.73,258.8z"/>
	<line class="st17" x1="603.08" y1="221.73" x2="583.28" y2="334.67"/>
	<line class="st17" x1="696.04" y1="238.03" x2="676.23" y2="350.97"/>
	<line class="st18" x1="602.46" y1="226.64" x2="676.19" y2="345.39"/>
	<line class="st18" x1="585.55" y1="330.35" x2="694.77" y2="244.32"/>
	<line class="st19" x1="610.79" y1="258.43" x2="614.16" y2="239.23"/>
	<line class="st19" x1="678.89" y1="269.91" x2="682.35" y2="250.15"/>
	<g>
		<polygon class="st20" points="544.55,267.98 540.8,289.38 536.24,288.59 534.5,298.54 564.51,303.8 573.52,299.4 578.47,271.2 
			571.86,262.98 541.66,257.69 539.99,267.18 		"/>
		<path class="st5" d="M570.87,264.73l-27.84-4.88l-0.99,5.63l4.73,0.83l-4.43,25.28l-4.73-0.83l-1.09,6.24l27.34,4.79l8.14-4.19
			l4.46-25.45L570.87,264.73z M567.06,294.16l-3.24,1.48l-15.43-2.71l4.45-25.4l14.64,2.57l3.38,2.48L567.06,294.16L567.06,294.16z"
			/>
		<polygon class="st20" points="554.51,269.73 550.72,291.31 562.24,293.33 565.63,292.26 568.87,273.78 566.35,271.81 		"/>
	</g>
</g>
<path class="st0" d="M717.86,109.51c-3.57-0.82-11.39-3.04-17.81-8.93c-2.4-2.2-7.45-6.96-8.18-14.2
	c-0.67-6.71,2.76-11.69,4.38-13.97c2.19-3.07,6.07-8.52,13.43-10.53c3.84-1.05,7.31-0.8,8.47-2.75c0.84-1.41-0.44-2.48-0.88-5.27
	c-0.38-2.42,0.24-4.2,1.46-7.78c1.2-3.52,2.31-6.75,4.96-10.07c4-5.01,9.35-7.49,13.43-9.39c4.4-2.04,12.1-5.62,22.78-5.49
	c8.63,0.1,14.82,2.57,19.86,4.58c6.72,2.68,10.99,4.38,13.72,8.24c2,2.82,2.18,5.37,4.38,5.72c2.1,0.34,3.37-1.74,8.18-3.66
	c0.22-0.09,3.41-1.34,7.01-1.83c7.52-1.02,13.88,1.71,16.35,2.75c1.96,0.82,6.6,2.83,10.22,7.1c1.85,2.18,5.32,6.27,4.38,10.99
	c-0.58,2.92-2.49,4.2-1.46,5.95c0.99,1.7,3.54,1.83,7.01,2.98c5.49,1.81,8.82,4.69,10.8,6.41c6.04,5.23,7.13,11.5,7.3,12.59
	c1.32,8.42-3.85,14.62-5.26,16.26c-1.11,1.29-5.06,5.61-12.56,8.47c-4.82,1.84-9.23,2.36-11.97,2.52L717.86,109.51z"/>
</svg>
